<svg width="132" height="27" viewBox="0 0 132 27" fill="none" xmlns="http://www.w3.org/2000/svg">
<path d="M29.7369 11.3763C29.2231 17.7354 18.3606 26.8389 18.3606 26.8389C18.3606 26.8389 7.5193 17.4181 6.98132 11.3763C6.4252 5.11993 12.0741 0 18.3606 0C24.6472 0 30.2507 5.11389 29.7369 11.3763Z" fill="white"/>
<path d="M23.8644 10.6509C23.8626 11.7391 23.5383 12.8023 22.9325 13.7062C22.3266 14.6101 21.4664 15.3141 20.4606 15.7293C19.4547 16.1444 18.3484 16.2521 17.2814 16.0388C16.2143 15.8254 15.2345 15.3005 14.4657 14.5304C13.6969 13.7603 13.1736 12.7796 12.962 11.7122C12.7503 10.6449 12.8599 9.5387 13.2767 8.53355C13.6935 7.52839 14.399 6.66935 15.3039 6.06499C16.2087 5.46063 17.2725 5.13806 18.3606 5.13806C19.0842 5.13806 19.8006 5.28072 20.4689 5.55788C21.1373 5.83504 21.7444 6.24125 22.2556 6.75329C22.7668 7.26532 23.172 7.87312 23.4481 8.54192C23.7241 9.21071 23.8656 9.92738 23.8644 10.6509Z" fill="#E9E9E9"/>
<g style="mix-blend-mode:multiply">
<path d="M21.8908 6.43469C22.4026 7.57026 22.5139 8.84591 22.2064 10.0529C21.8989 11.26 21.1909 12.3269 20.1981 13.0792C19.2054 13.8315 17.9867 14.2246 16.7415 14.1941C15.4963 14.1637 14.2983 13.7116 13.3435 12.9117C13.6832 13.6653 14.1883 14.3327 14.8215 14.8643C15.4546 15.3958 16.1994 15.7778 17.0005 15.9819C17.8015 16.1859 18.6383 16.2068 19.4486 16.043C20.2588 15.8792 21.0218 15.5348 21.6806 15.0355C22.3395 14.5363 22.8773 13.8949 23.2542 13.1592C23.6311 12.4234 23.8373 11.6122 23.8575 10.7857C23.8777 9.95933 23.7114 9.13899 23.3709 8.3857C23.0304 7.63241 22.5245 6.96555 21.8908 6.43469Z" fill="#C9C9C9"/>
</g>
<path d="M17.6322 16.9254C17.5536 16.8378 15.6586 14.704 15.6586 10.5542C15.6586 6.40447 17.5627 4.42481 17.6413 4.3432L18.0946 4.79052L17.8679 4.56686L18.0946 4.79052C18.0765 4.80865 16.2812 6.67951 16.2812 10.5542C16.2812 14.4289 18.0735 16.4781 18.0946 16.4993L17.6322 16.9254Z" fill="#8C8C8C"/>
<path d="M19.086 16.9254L18.6145 16.5114C18.6326 16.4902 20.4279 14.4531 20.4279 10.5663C20.4279 6.67951 18.6447 4.82376 18.6145 4.8026L19.0678 4.35529C19.1585 4.43689 21.0626 6.41354 21.0626 10.5784C21.0626 14.7433 19.1645 16.8499 19.086 16.9254Z" fill="#8C8C8C"/>
<path d="M12.5002 10.4212L12.074 9.94973C12.1617 9.86812 14.2955 7.97308 18.4422 7.97308C22.5889 7.97308 24.5716 9.87719 24.6563 9.97391L24.2089 10.4273C24.1908 10.4091 22.32 8.61383 18.4422 8.61383C14.5645 8.61383 12.5183 10.4031 12.5002 10.4212Z" fill="#8C8C8C"/>
<path d="M18.276 13.3288C14.1111 13.3288 12.1465 11.4246 12.0649 11.3461L12.5092 10.8806C12.5274 10.8987 14.3982 12.6941 18.276 12.6941C22.1537 12.6941 24.1999 10.9018 24.218 10.8806L24.6441 11.3521C24.5565 11.4337 22.4227 13.3288 18.276 13.3288Z" fill="#8C8C8C"/>
<path d="M30.015 12.3405C33.8867 13.0114 36.362 14.0179 36.362 15.1422C36.362 17.1581 28.4494 18.7933 18.687 18.7933C8.92472 18.7933 1 17.1581 1 15.1422C1 14.0874 3.15799 13.1384 6.61561 12.4734" stroke="white" stroke-width="0.906718" stroke-miterlimit="10"/>
<path d="M30.015 11.3884C33.8867 12.0593 36.362 13.0658 36.362 14.1901C36.3499 16.2061 28.4373 17.8321 18.675 17.8321C8.91263 17.8321 1 16.2061 1 14.2052C1 13.1504 3.15799 12.2014 6.61561 11.5365" stroke="white" stroke-width="0.906718" stroke-miterlimit="10"/>
<path d="M7.76413 17.0735C7.76413 17.5081 7.63526 17.9329 7.39382 18.2942C7.15238 18.6556 6.80921 18.9372 6.40771 19.1035C6.00621 19.2698 5.56441 19.3133 5.13818 19.2286C4.71195 19.1438 4.32043 18.9345 4.01314 18.6272C3.70584 18.3199 3.49657 17.9284 3.41179 17.5022C3.32701 17.0759 3.37052 16.6341 3.53683 16.2326C3.70313 15.8311 3.98476 15.488 4.34611 15.2465C4.70745 15.0051 5.13227 14.8762 5.56685 14.8762C5.8554 14.8762 6.14112 14.9331 6.40771 15.0435C6.6743 15.1539 6.91652 15.3158 7.12056 15.5198C7.3246 15.7238 7.48645 15.9661 7.59687 16.2326C7.70729 16.4992 7.76413 16.785 7.76413 17.0735Z" fill="white"/>
<path d="M49.9091 14.3119V18.3333H58.1395V20.6045H47.2004V6.01903H57.8478V8.29019H49.9091V12.0824H56.9518V14.3119H49.9091ZM69.2044 9.47786H71.684V24.6468H69.0794V19.2501C68.2043 20.2503 67.0166 20.7503 65.5164 20.7503C64.4329 20.7503 63.4605 20.5142 62.5993 20.0419C61.752 19.5696 61.0852 18.9029 60.599 18.0416C60.1267 17.1804 59.8906 16.1802 59.8906 15.0412C59.8906 13.916 60.1337 12.9228 60.6199 12.0616C61.106 11.2003 61.7728 10.5336 62.6201 10.0613C63.4675 9.58899 64.4329 9.35285 65.5164 9.35285C66.2804 9.35285 66.9749 9.48481 67.6 9.74874C68.239 10.0127 68.7738 10.4086 69.2044 10.9364V9.47786ZM65.8081 18.5209C66.7666 18.5209 67.5584 18.2014 68.1835 17.5624C68.8086 16.9234 69.1211 16.083 69.1211 15.0412C69.1211 13.9994 68.8086 13.159 68.1835 12.52C67.5584 11.881 66.7666 11.5615 65.8081 11.5615C64.8496 11.5615 64.0579 11.881 63.4328 12.52C62.8216 13.159 62.516 13.9994 62.516 15.0412C62.516 16.083 62.8216 16.9234 63.4328 17.5624C64.0579 18.2014 64.8496 18.5209 65.8081 18.5209ZM83.2596 9.47786H85.8641V20.6045H83.3846V19.1876C82.9678 19.6877 82.4469 20.0766 81.8218 20.3545C81.1968 20.6184 80.523 20.7503 79.8007 20.7503C78.3144 20.7503 77.1406 20.3406 76.2794 19.521C75.432 18.6875 75.0084 17.4582 75.0084 15.833V9.47786H77.6129V15.4787C77.6129 16.4789 77.8352 17.229 78.2797 17.7291C78.7381 18.2153 79.384 18.4583 80.2174 18.4583C81.1481 18.4583 81.8844 18.1736 82.4261 17.6041C82.9817 17.0206 83.2596 16.1872 83.2596 15.1037V9.47786ZM93.5249 9.35285C95.164 9.35285 96.4142 9.74874 97.2754 10.5405C98.1506 11.3184 98.5881 12.4991 98.5881 14.0827V20.6045H96.1294V19.2501C95.81 19.7363 95.3516 20.1114 94.7542 20.3753C94.1708 20.6253 93.4624 20.7503 92.6289 20.7503C91.7955 20.7503 91.0662 20.6114 90.4411 20.3336C89.816 20.0419 89.3298 19.646 88.9826 19.1459C88.6492 18.632 88.4825 18.0555 88.4825 17.4165C88.4825 16.4164 88.8506 15.6177 89.5868 15.0203C90.3369 14.4091 91.5107 14.1035 93.1082 14.1035H95.9836V13.9369C95.9836 13.159 95.7474 12.5616 95.2751 12.1449C94.8167 11.7282 94.1291 11.5198 93.2123 11.5198C92.5873 11.5198 91.9691 11.6171 91.3579 11.8115C90.7606 12.006 90.2536 12.2769 89.8369 12.6242L88.8159 10.728C89.3993 10.2835 90.1008 9.94321 90.9203 9.70707C91.7399 9.47092 92.6081 9.35285 93.5249 9.35285ZM93.1707 18.8542C93.8235 18.8542 94.4 18.7084 94.9001 18.4167C95.4141 18.1111 95.7752 17.6805 95.9836 17.1248V15.833H93.2957C91.7955 15.833 91.0454 16.3261 91.0454 17.3123C91.0454 17.7846 91.2329 18.1597 91.6079 18.4375C91.983 18.7153 92.5039 18.8542 93.1707 18.8542ZM108.619 20.0002C108.314 20.2503 107.939 20.4378 107.494 20.5628C107.063 20.6878 106.605 20.7503 106.119 20.7503C104.896 20.7503 103.952 20.4309 103.285 19.7919C102.618 19.1529 102.285 18.2222 102.285 16.9998V11.6448H100.451V9.56121H102.285V7.01917H104.89V9.56121H107.869V11.6448H104.89V16.9373C104.89 17.479 105.021 17.8958 105.285 18.1875C105.549 18.4653 105.931 18.6042 106.431 18.6042C107.015 18.6042 107.501 18.4514 107.89 18.1458L108.619 20.0002ZM115.396 20.7503C114.271 20.7503 113.257 20.5073 112.354 20.0211C111.451 19.5349 110.743 18.8612 110.229 17.9999C109.729 17.1248 109.479 16.1386 109.479 15.0412C109.479 13.9438 109.729 12.9645 110.229 12.1032C110.743 11.242 111.451 10.5683 112.354 10.0821C113.257 9.59594 114.271 9.35285 115.396 9.35285C116.535 9.35285 117.556 9.59594 118.459 10.0821C119.362 10.5683 120.064 11.242 120.564 12.1032C121.078 12.9645 121.335 13.9438 121.335 15.0412C121.335 16.1386 121.078 17.1248 120.564 17.9999C120.064 18.8612 119.362 19.5349 118.459 20.0211C117.556 20.5073 116.535 20.7503 115.396 20.7503ZM115.396 18.5209C116.355 18.5209 117.147 18.2014 117.772 17.5624C118.397 16.9234 118.709 16.083 118.709 15.0412C118.709 13.9994 118.397 13.159 117.772 12.52C117.147 11.881 116.355 11.5615 115.396 11.5615C114.438 11.5615 113.646 11.881 113.021 12.52C112.41 13.159 112.104 13.9994 112.104 15.0412C112.104 16.083 112.41 16.9234 113.021 17.5624C113.646 18.2014 114.438 18.5209 115.396 18.5209ZM126.305 11.1031C127.055 9.93627 128.374 9.35285 130.264 9.35285V11.8324C130.041 11.7907 129.84 11.7699 129.659 11.7699C128.645 11.7699 127.854 12.0685 127.284 12.6658C126.715 13.2492 126.43 14.0966 126.43 15.2079V20.6045H123.825V9.47786H126.305V11.1031Z" fill="white"/>
</svg>
